<?xml version="1.0" encoding="UTF-8" standalone="no"?>
<svg width="29px" height="29px" viewBox="0 0 29 29" version="1.1" xmlns="http://www.w3.org/2000/svg" xmlns:xlink="http://www.w3.org/1999/xlink">
    <!-- Generator: Sketch 3.8.3 (29802) - http://www.bohemiancoding.com/sketch -->
    <title>facebook-icon</title>
    <desc>Created with Sketch.</desc>
    <defs></defs>
    <g id="Page-1" stroke="none" stroke-width="1" fill="none" fill-rule="evenodd">
        <g id="Genesis-Block" transform="translate(-1165.000000, -1480.000000)" fill="#FFFFFF">
            <g id="footer" transform="translate(1.000000, 1411.000000)">
                <path d="M1184.14306,98 L1184.14306,86.7652375 L1187.77489,86.7483406 L1188.24436,82.4605111 L1184.14306,82.462499 L1184.14306,79.2739601 C1184.14306,78.6792565 1184.36636,78.3734563 1184.52175,78.1226537 C1184.74041,77.7466155 1185.1794,77.5590933 1185.8672,77.5590933 L1188.54718,77.5527984 L1188.49582,73.5548663 C1186.53446,73.0804286 1184.70662,73.2238864 1183.99827,73.3093647 C1182.94371,73.4186974 1182.6452,73.6353749 1181.91698,74.1114691 C1180.27666,75.1825982 1179.67036,76.0728313 1179.48714,78.7677166 L1179.48714,82.4118084 L1175.79302,82.4621677 L1175.79302,86.7645748 L1179.43678,86.7135529 L1179.43678,97.9993374 L1165.51807,97.9993374 C1164.67952,97.9993374 1164,97.3194868 1164,96.4809382 L1164,70.5187305 C1164,69.6795193 1164.67952,69 1165.51807,69 L1191.4816,69 C1192.32015,69 1193,69.6795193 1193,70.5187305 L1193,96.4816008 C1193,97.3201494 1192.32015,98 1191.4816,98 L1184.14306,98 Z" id="facebook-icon"></path>
            </g>
        </g>
    </g>
</svg>