<?xml version="1.0" encoding="UTF-8" standalone="no"?>
<svg width="286px" height="35px" viewBox="0 0 286 35" version="1.1" xmlns="http://www.w3.org/2000/svg" xmlns:xlink="http://www.w3.org/1999/xlink">
    <!-- Generator: Sketch 3.8.3 (29802) - http://www.bohemiancoding.com/sketch -->
    <title>genesis-block-logo</title>
    <desc>Created with Sketch.</desc>
    <defs></defs>
    <g id="Page-1" stroke="none" stroke-width="1" fill="none" fill-rule="evenodd">
        <g id="Genesis-Block" transform="translate(-34.000000, -24.000000)">
            <g id="top" transform="translate(-194.000000, -121.000000)">
                <g id="top-container">
                    <g id="genesis-block-logo" transform="translate(228.000000, 145.000000)">
                        <g id="type" transform="translate(43.864865, 10.787611)" fill="#FFFFFF">
                            <path d="M135.289609,1.28278076 L135.289609,2.25259195 C133.901233,1.51290175 132.540207,1.1430622 131.206491,1.1430622 C129.785318,1.1430622 128.59647,1.62796295 127.639912,2.59777898 C126.683353,3.56759502 126.205081,4.7784771 126.205081,6.23046156 C126.205081,7.69888358 126.686086,8.90702611 127.648111,9.8549254 C128.610136,10.8028247 129.837245,11.2767672 131.329476,11.2767672 C132.575736,11.2767672 133.934028,10.8850113 135.404396,10.1014876 L135.404396,11.0219863 C134.048815,11.7397598 132.695989,12.0986411 131.345875,12.0986411 C129.602205,12.0986411 128.149624,11.5384027 126.988089,10.417909 C125.826553,9.29741534 125.245794,7.90161348 125.245794,6.23046156 C125.245794,4.54835126 125.838852,3.14296097 127.024984,2.01424852 C128.211117,0.885536073 129.62407,0.321188315 131.263884,0.321188315 C132.553872,0.321188315 133.895767,0.641715925 135.289609,1.28278076 L135.289609,1.28278076 Z M142.693335,0.321188315 C144.38781,0.321188315 145.823993,0.892384954 147.001927,2.03479537 C148.17986,3.17720578 148.768818,4.57026809 148.768818,6.21402408 C148.768818,7.85230089 148.17986,9.24262364 147.001927,10.3850341 C145.823993,11.5274445 144.38781,12.0986411 142.693335,12.0986411 C141.004326,12.0986411 139.573609,11.5274445 138.401142,10.3850341 C137.228674,9.24262364 136.642449,7.85230089 136.642449,6.21402408 C136.642449,4.57026809 137.228674,3.17720578 138.401142,2.03479537 C139.573609,0.892384954 141.004326,0.321188315 142.693335,0.321188315 L142.693335,0.321188315 Z M142.726131,11.2767672 C144.15277,11.2767672 145.356649,10.7877571 146.337805,9.80972233 C147.318961,8.83168752 147.809531,7.63313342 147.809531,6.21402408 C147.809531,4.78943555 147.318961,3.5881419 146.337805,2.61010709 C145.356649,1.63207227 144.15277,1.1430622 142.726131,1.1430622 C141.294027,1.1430622 140.081948,1.63207227 139.089861,2.61010709 C138.097773,3.5881419 137.601736,4.78943555 137.601736,6.21402408 C137.601736,7.63313342 138.097773,8.83168752 139.089861,9.80972233 C140.081948,10.7877571 141.294027,11.2767672 142.726131,11.2767672 L142.726131,11.2767672 Z M161.247745,0.469125614 L161.247745,11.9507038 L160.509833,11.9507038 L151.810659,1.91562365 L151.810659,11.9507038 L150.925164,11.9507038 L150.925164,0.469125614 L151.679475,0.469125614 L160.36225,10.5042058 L160.36225,0.469125614 L161.247745,0.469125614 Z M169.274598,1.04443733 L169.274598,2.02246726 C168.279777,1.43619429 167.424353,1.1430622 166.708301,1.1430622 C166.019579,1.1430622 165.444286,1.35263795 164.982405,1.77179572 C164.520524,2.1909535 164.289586,2.71009865 164.289586,3.32924674 C164.289586,3.77306086 164.426236,4.17303548 164.699538,4.52918261 C164.972841,4.88532974 165.544034,5.22777377 166.413136,5.55652497 C167.282238,5.88527617 167.91629,6.15923139 168.315311,6.37839886 C168.714333,6.59756632 169.053223,6.91535438 169.331991,7.33177257 C169.61076,7.74819075 169.750142,8.28788254 169.750142,8.95086412 C169.750142,9.83301317 169.42765,10.5781714 168.782656,11.1863611 C168.137662,11.7945508 167.350563,12.0986411 166.421335,12.0986411 C165.470242,12.0986411 164.491834,11.7644157 163.486081,11.095955 L163.486081,10.0521751 C164.595689,10.8685739 165.557699,11.2767672 166.372141,11.2767672 C167.049931,11.2767672 167.622491,11.0562333 168.089838,10.6151587 C168.557185,10.1740842 168.790855,9.63302265 168.790855,8.99195782 C168.790855,8.50431021 168.646007,8.06461207 168.356307,7.67285023 C168.066606,7.28108838 167.479015,6.91535816 166.593515,6.57564859 C165.708015,6.23593902 165.075329,5.9619838 164.695439,5.7537747 C164.315548,5.54556561 163.993056,5.2483242 163.727953,4.86204154 C163.462849,4.47575888 163.3303,3.97853015 163.3303,3.37034043 C163.3303,2.52654569 163.652792,1.80741323 164.297786,1.21292148 C164.942779,0.618429731 165.718947,0.321188315 166.626311,0.321188315 C167.517277,0.321188315 168.40003,0.562268911 169.274598,1.04443733 L169.274598,1.04443733 Z M180.212107,0.469125614 L181.097603,0.469125614 L181.097603,6.73180463 C181.097603,8.44679005 180.652127,9.76999377 179.761161,10.7014555 C178.870195,11.6329172 177.716876,12.0986411 176.301169,12.0986411 C174.890928,12.0986411 173.740342,11.6383963 172.849376,10.717893 C171.95841,9.79738962 171.512934,8.5371956 171.512934,6.9372731 L171.512934,0.469125614 L172.406629,0.469125614 L172.406629,6.90439814 C172.406629,8.2741948 172.768749,9.34535972 173.493,10.117925 C174.217252,10.8904904 175.153299,11.2767672 176.301169,11.2767672 C177.459971,11.2767672 178.401484,10.886381 179.125736,10.1055969 C179.849987,9.32481284 180.212107,8.21666396 180.212107,6.78111706 L180.212107,0.469125614 Z M184.377216,0.469125614 L184.377216,11.2110173 L190.042747,11.2110173 L190.042747,11.9507038 L183.49172,11.9507038 L183.49172,0.469125614 L184.377216,0.469125614 Z M198.249978,0.469125614 L198.249978,1.20881211 L193.953686,1.20881211 L193.953686,11.9507038 L193.059991,11.9507038 L193.059991,1.20881211 L188.763698,1.20881211 L188.763698,0.469125614 L198.249978,0.469125614 Z M202.488878,0.386938226 L207.777254,11.9507038 L206.850763,11.9507038 L205.038777,7.98105294 L199.447037,7.98105294 L197.635051,11.9507038 L196.70856,11.9507038 L201.996936,0.386938226 L202.488878,0.386938226 Z M204.702617,7.24136644 L202.234708,1.83343627 L199.783198,7.24136644 L204.702617,7.24136644 Z M219.477273,0.469125614 L219.477273,11.9507038 L218.73936,11.9507038 L210.040187,1.91562365 L210.040187,11.9507038 L209.154691,11.9507038 L209.154691,0.469125614 L209.909002,0.469125614 L218.591778,10.5042058 L218.591778,0.469125614 L219.477273,0.469125614 Z M231.652836,1.28278076 L231.652836,2.25259195 C230.26446,1.51290175 228.903434,1.1430622 227.569718,1.1430622 C226.148545,1.1430622 224.959698,1.62796295 224.003139,2.59777898 C223.046581,3.56759502 222.568308,4.7784771 222.568308,6.23046156 C222.568308,7.69888358 223.049314,8.90702611 224.011338,9.8549254 C224.973363,10.8028247 226.200472,11.2767672 227.692704,11.2767672 C228.938963,11.2767672 230.297256,10.8850113 231.767623,10.1014876 L231.767623,11.0219863 C230.412043,11.7397598 229.059216,12.0986411 227.709102,12.0986411 C225.965432,12.0986411 224.512851,11.5384027 223.351316,10.417909 C222.189781,9.29741534 221.609022,7.90161348 221.609022,6.23046156 C221.609022,4.54835126 222.202079,3.14296097 223.388212,2.01424852 C224.574344,0.885536073 225.987297,0.321188315 227.627111,0.321188315 C228.917099,0.321188315 230.258994,0.641715925 231.652836,1.28278076 L231.652836,1.28278076 Z M241.942622,0.469125614 L237.490547,5.78664966 L237.490547,11.9507038 L236.605052,11.9507038 L236.605052,5.78664966 L232.152977,0.469125614 L233.22705,0.469125614 L237.055999,5.01408821 L240.868549,0.469125614 L241.942622,0.469125614 Z" id="CONSULTANCY" fill-opacity="0.844429348"></path>
                            <path d="M6.61333949,6.29621147 L10.4586857,6.29621147 L10.4586857,11.1617049 C9.04844505,11.7753738 7.64915752,12.0822036 6.2607811,12.0822036 C4.36406213,12.0822036 2.84862281,11.5274443 1.71441766,10.417909 C0.580212518,9.30837371 0.0131184518,7.93996738 0.0131184518,6.31264895 C0.0131184518,4.59766353 0.600709894,3.17035682 1.77591041,2.030686 C2.95111092,0.891015178 4.424189,0.321188315 6.19518884,0.321188315 C6.84018261,0.321188315 7.4523709,0.391046897 8.03177209,0.530766156 C8.61117327,0.670485415 9.34361284,0.926633548 10.2291128,1.29921824 L10.2291128,2.97584097 C8.86260053,2.18135891 7.50704074,1.78412383 6.16239271,1.78412383 C4.91066752,1.78412383 3.8557359,2.21149398 2.99756623,3.0662471 C2.13939655,3.92100021 1.71031815,4.97024871 1.71031815,6.21402408 C1.71031815,7.5180705 2.13939655,8.58375632 2.99756623,9.4111135 C3.8557359,10.2384707 4.95986122,10.6521431 6.30997529,10.6521431 C6.96590116,10.6521431 7.75026741,10.5014677 8.66309758,10.2001124 L8.81887919,10.1508 L8.81887919,7.75914699 L6.61333949,7.75914699 L6.61333949,6.29621147 Z M12.8528031,0.469125614 L19.3464367,0.469125614 L19.3464367,1.93206113 L14.4926096,1.93206113 L14.4926096,5.43324389 L19.1824561,5.43324389 L19.1824561,6.90439814 L14.4926096,6.90439814 L14.4926096,10.4713308 L19.5022183,10.4713308 L19.5022183,11.9342663 L12.8528031,11.9342663 L12.8528031,0.469125614 Z M30.3495381,0.469125614 L31.9073543,0.469125614 L31.9073543,11.9507038 L30.4971207,11.9507038 L22.8392245,3.11555953 L22.8392245,11.9507038 L21.2978064,11.9507038 L21.2978064,0.469125614 L22.6260497,0.469125614 L30.3495381,9.37823854 L30.3495381,0.469125614 Z M34.358865,0.469125614 L40.8524986,0.469125614 L40.8524986,1.93206113 L35.9986714,1.93206113 L35.9986714,5.43324389 L40.6885179,5.43324389 L40.6885179,6.90439814 L35.9986714,6.90439814 L35.9986714,10.4713308 L41.0082802,10.4713308 L41.0082802,11.9342663 L34.358865,11.9342663 L34.358865,0.469125614 Z M45.5915393,7.13452283 L44.3452864,6.37839886 C43.5636414,5.90170962 43.0074792,5.43187641 42.6767833,4.96888514 C42.3460873,4.50589387 42.1807418,3.97305096 42.1807418,3.37034043 C42.1807418,2.46627464 42.4936684,1.73207464 43.119531,1.16771842 C43.7453936,0.603362194 44.5584562,0.321188315 45.5587431,0.321188315 C46.5153017,0.321188315 47.3925894,0.589664433 48.1906325,1.12662472 L48.1906325,2.99227845 C47.3652591,2.19779638 46.4770395,1.80056131 45.525947,1.80056131 C44.9902742,1.80056131 44.5502639,1.92521094 44.2059028,2.17451393 C43.8615417,2.42381692 43.6893638,2.74297475 43.6893638,3.13199701 C43.6893638,3.47718576 43.815081,3.80045293 44.0665193,4.10180819 C44.3179575,4.40316346 44.725172,4.71821196 45.2881751,5.04696316 L46.542627,5.78664966 C47.9419355,6.61948603 48.6415793,7.68243229 48.6415793,8.97552034 C48.6415793,9.89602369 48.3341187,10.6439215 47.7191882,11.219236 C47.1042577,11.7945506 46.30486,12.0822036 45.3209712,12.0822036 C44.1894991,12.0822036 43.1591643,11.7342805 42.229936,11.0384238 L42.229936,8.95086412 C43.1154359,10.0740974 44.1403047,10.6357056 45.3045731,10.6357056 C45.8183817,10.6357056 46.2460936,10.4918791 46.5877217,10.2042218 C46.9293498,9.9165645 47.1001612,9.55631338 47.1001612,9.12345764 C47.1001612,8.42212175 46.5972923,7.75915011 45.5915393,7.13452283 L45.5915393,7.13452283 Z M50.4617645,0.469125614 L52.101571,0.469125614 L52.101571,11.9507038 L50.4617645,11.9507038 L50.4617645,0.469125614 Z M57.4801362,7.13452283 L56.2338833,6.37839886 C55.4522383,5.90170962 54.8960761,5.43187641 54.5653802,4.96888514 C54.2346842,4.50589387 54.0693387,3.97305096 54.0693387,3.37034043 C54.0693387,2.46627464 54.3822653,1.73207464 55.0081279,1.16771842 C55.6339905,0.603362194 56.4470531,0.321188315 57.44734,0.321188315 C58.4038986,0.321188315 59.2811863,0.589664433 60.0792294,1.12662472 L60.0792294,2.99227845 C59.253856,2.19779638 58.3656364,1.80056131 57.4145439,1.80056131 C56.8788711,1.80056131 56.4388608,1.92521094 56.0944997,2.17451393 C55.7501386,2.42381692 55.5779607,2.74297475 55.5779607,3.13199701 C55.5779607,3.47718576 55.7036779,3.80045293 55.9551162,4.10180819 C56.2065544,4.40316346 56.6137689,4.71821196 57.176772,5.04696316 L58.4312239,5.78664966 C59.8305324,6.61948603 60.5301762,7.68243229 60.5301762,8.97552034 C60.5301762,9.89602369 60.2227156,10.6439215 59.6077851,11.219236 C58.9928546,11.7945506 58.1934569,12.0822036 57.2095681,12.0822036 C56.078096,12.0822036 55.0477612,11.7342805 54.1185329,11.0384238 L54.1185329,8.95086412 C55.0040328,10.0740974 56.0289016,10.6357056 57.19317,10.6357056 C57.7069786,10.6357056 58.1346906,10.4918791 58.4763186,10.2042218 C58.8179467,9.9165645 58.9887581,9.55631338 58.9887581,9.12345764 C58.9887581,8.42212175 58.4858892,7.75915011 57.4801362,7.13452283 L57.4801362,7.13452283 Z M70.877355,11.9507038 L66.9992127,11.9507038 L66.9992127,0.469125614 L70.0000586,0.469125614 C70.945685,0.469125614 71.6835906,0.596514793 72.2137973,0.851296972 C72.744004,1.10607915 73.1484856,1.45674184 73.4272541,1.90329555 C73.7060226,2.34984926 73.8454047,2.86625485 73.8454047,3.45252782 C73.8454047,4.58124027 73.2632793,5.38940818 72.0990109,5.87705579 C72.9353163,6.0359522 73.6007978,6.38113578 74.0954752,6.91261688 C74.5901527,7.44409799 74.8374877,8.0796741 74.8374877,8.8193643 C74.8374877,9.40563727 74.6871736,9.92889175 74.3865409,10.3891434 C74.0859082,10.8493951 73.6445314,11.2247138 73.0623972,11.5151106 C72.4802629,11.8055075 71.7519229,11.9507038 70.877355,11.9507038 L70.877355,11.9507038 Z M70.0492528,1.93206113 L68.6390192,1.93206113 L68.6390192,5.38393145 L69.7294905,5.38393145 C70.6040583,5.38393145 71.2258121,5.21681877 71.5947704,4.88258838 C71.9637287,4.548358 72.148205,4.11550875 72.148205,3.58402764 C72.148205,2.48271113 71.4485613,1.93206113 70.0492528,1.93206113 L70.0492528,1.93206113 Z M70.1722383,6.84686697 L68.6390192,6.84686697 L68.6390192,10.4877683 L70.2542286,10.4877683 C71.1506606,10.4877683 71.7587494,10.4179097 72.0785133,10.2781904 C72.3982771,10.1384712 72.6551776,9.92067679 72.8492223,9.62480071 C73.043267,9.32892463 73.140288,9.01113657 73.140288,8.671427 C73.140288,8.32075906 73.0378011,8.00023145 72.8328242,7.70983455 C72.6278474,7.41943766 72.3367847,7.20301304 71.9596273,7.06055418 C71.5824699,6.91809533 70.9866795,6.84686697 70.1722383,6.84686697 L70.1722383,6.84686697 Z M76.452697,0.469125614 L78.0925035,0.469125614 L78.0925035,10.4548933 L83.2496948,10.4548933 L83.2496948,11.9507038 L76.452697,11.9507038 L76.452697,0.469125614 Z M90.3090617,0.304750837 C92.0800615,0.304750837 93.5545061,0.866359043 94.7324396,1.9895923 C95.9103732,3.11282557 96.4993311,4.52095541 96.4993311,6.21402408 C96.4993311,7.90709275 95.9049072,9.30837371 94.7160416,10.417909 C93.5271759,11.5274443 92.0281345,12.0822036 90.2188723,12.0822036 C88.4916009,12.0822036 87.0526851,11.5274443 85.9020818,10.417909 C84.7514785,9.30837371 84.1761855,7.91805096 84.1761855,6.24689904 C84.1761855,4.53191362 84.755578,3.11282557 85.9143804,1.9895923 C87.0731827,0.866359043 88.5380619,0.304750837 90.3090617,0.304750837 L90.3090617,0.304750837 Z M90.374654,1.86631122 C89.0628022,1.86631122 87.9846402,2.27724406 87.1401357,3.09912205 C86.2956311,3.92100005 85.8733852,4.97024855 85.8733852,6.24689904 C85.8733852,7.48519522 86.2969976,8.51526685 87.1442352,9.33714485 C87.9914728,10.1590228 89.0518704,10.5699557 90.3254598,10.5699557 C91.6045152,10.5699557 92.6717452,10.1508042 93.5271819,9.31248863 C94.3826185,8.47417308 94.8103305,7.43040368 94.8103305,6.18114912 C94.8103305,4.96476969 94.3826185,3.94154693 93.5271819,3.11145016 C92.6717452,2.28135338 91.6209131,1.86631122 90.374654,1.86631122 L90.374654,1.86631122 Z M108.379729,9.28783242 L108.379729,11.095955 C107.177198,11.7534574 105.788843,12.0822036 104.214621,12.0822036 C102.935565,12.0822036 101.850571,11.8246857 100.959605,11.3096422 C100.068639,10.7945986 99.363529,10.0850546 98.8442544,9.18098881 C98.3249797,8.27692301 98.0653463,7.29890287 98.0653463,6.24689904 C98.0653463,4.57574711 98.6597702,3.17035682 99.8486358,2.030686 C101.037501,0.891015178 102.503747,0.321188315 104.247417,0.321188315 C105.449947,0.321188315 106.786376,0.636236821 108.256744,1.26634328 L108.256744,3.03337214 C106.917562,2.26628601 105.608462,1.8827487 104.329407,1.8827487 C103.017555,1.8827487 101.928461,2.29779086 101.062093,3.12788764 C100.195724,3.95798441 99.762546,4.99764448 99.762546,6.24689904 C99.762546,7.50711196 100.188891,8.5426627 101.041595,9.35358233 C101.894299,10.1645019 102.984759,10.5699557 104.313009,10.5699557 C105.701385,10.5699557 107.056945,10.1425855 108.379729,9.28783242 L108.379729,9.28783242 Z M116.873927,0.469125614 L118.923685,0.469125614 L113.955071,5.90993074 L120.14534,11.9507038 L117.898806,11.9507038 L112.052895,6.27977399 L112.052895,11.9507038 L110.413089,11.9507038 L110.413089,0.469125614 L112.052895,0.469125614 L112.052895,5.72089975 L116.873927,0.469125614 Z" id="GENESIS-BLOCK"></path>
                        </g>
                        <g id="logomark-copy">
                            <path d="M21.5680911,23.9397602 L14.914256,27.8528722 L5.95306952,22.586623 L6.0376656,12.1713298 L14.8126144,7.20080814 L24.0266422,12.3853011 L29.8414315,8.67082325 L15.008953,0.149417504 L0.107417613,8.670823 L0.103945387,26.2161513 L15.0089531,34.8344048 L28.5946584,26.7197845 L28.5851204,26.7158219 L28.5851207,21.1170703 L18.8650301,15.542233 L16.0015296,17.4349943 L15.7044207,20.5563373 L21.5680911,23.9397602 Z" id="Path-1" fill="#FFFFFF"></path>
                            <polyline id="Path-4" stroke="#FFFFFF" stroke-width="1.5" points="5.91208636 12.1689672 15.7519455 17.8149397 24.0616445 11.956354"></polyline>
                            <path d="M14.9979968,27.8942107 L15.6096102,17.624918" id="Path-5" stroke="#FFFFFF" stroke-width="1.5"></path>
                            <path d="M24.0004968,11.5029151 L23.5004968,22.4451602" id="Path-6" stroke="#FFFFFF" stroke-width="1.5"></path>
                        </g>
                    </g>
                </g>
            </g>
        </g>
    </g>
</svg>