<?xml version="1.0" encoding="UTF-8" standalone="no"?>
<svg width="31px" height="31px" viewBox="0 0 31 31" version="1.1" xmlns="http://www.w3.org/2000/svg" xmlns:xlink="http://www.w3.org/1999/xlink">
    <!-- Generator: Sketch 3.8.3 (29802) - http://www.bohemiancoding.com/sketch -->
    <title>linkedin-icon</title>
    <desc>Created with Sketch.</desc>
    <defs></defs>
    <g id="Page-1" stroke="none" stroke-width="1" fill="none" fill-rule="evenodd">
        <g id="Genesis-Block" transform="translate(-1308.000000, -1479.000000)" fill="#FFFFFF">
            <g id="footer" transform="translate(1.000000, 1411.000000)">
                <path d="M1333.1561,99 L1311.84378,99 C1309.16863,99 1307,96.8313613 1307,94.1562036 L1307,72.8437964 C1307,70.1686387 1309.16863,68 1311.84378,68 L1333.15622,68 C1335.83137,68 1338,70.1686387 1338,72.8437964 L1338,94.1563273 C1337.99988,96.8313613 1335.83125,99 1333.1561,99 L1333.1561,99 Z M1311.93182,94.0681818 L1316.51136,94.0681818 L1316.51136,79.625 L1311.93182,79.625 L1311.93182,94.0681818 L1311.93182,94.0681818 Z M1314.39773,72.9318182 C1313.03583,72.9318182 1311.93182,74.0358342 1311.93182,75.3977273 C1311.93182,76.7596203 1313.03583,77.8636364 1314.39773,77.8636364 C1315.75962,77.8636364 1316.86364,76.7596203 1316.86364,75.3977273 C1316.86364,74.0358342 1315.75962,72.9318182 1314.39773,72.9318182 L1314.39773,72.9318182 Z M1334.12488,84.7437588 C1334.12488,82.1839456 1331.97918,79.625 1328.01317,79.625 C1326.01491,79.625 1324.28833,79.799513 1323.07363,81.277296 L1323.07363,79.6538789 L1318.27273,79.6538789 L1318.27273,94.0681818 L1323.02403,94.0681818 L1323.02403,84.5609416 C1323.5586,83.7203541 1324.44222,82.9671471 1325.75922,82.9153385 C1328.80342,82.7911467 1329.3484,84.3741581 1329.3484,86.4507141 L1329.3484,94.0681818 L1334.125,94.0681818 C1334.12488,94.0681818 1334.12488,87.3039439 1334.12488,84.7437588 L1334.12488,84.7437588 Z" id="linkedin-icon"></path>
            </g>
        </g>
    </g>
</svg>