<?xml version="1.0" encoding="UTF-8" standalone="no"?>
<svg width="32px" height="27px" viewBox="0 0 32 27" version="1.1" xmlns="http://www.w3.org/2000/svg" xmlns:xlink="http://www.w3.org/1999/xlink">
    <!-- Generator: Sketch 3.8.3 (29802) - http://www.bohemiancoding.com/sketch -->
    <title>twitter-icon</title>
    <desc>Created with Sketch.</desc>
    <defs></defs>
    <g id="Page-1" stroke="none" stroke-width="1" fill="none" fill-rule="evenodd">
        <g id="Genesis-Block" transform="translate(-1234.000000, -1482.000000)" fill="#FFFFFF">
            <g id="footer" transform="translate(1.000000, 1411.000000)">
                <path d="M1248.45748,79.1617781 C1248.45748,79.1617781 1247.71214,73.277316 1252.7293,71.477305 C1252.7293,71.477305 1257.00043,69.6769428 1259.84751,73.0693522 C1259.84751,73.0693522 1263.16961,72.5157188 1263.91565,71.477305 C1263.91565,71.477305 1263.71127,73.5611585 1261.40724,75.0808398 C1261.40724,75.0808398 1263.50967,75.0773269 1265,74.2461743 C1265,74.2461743 1262.90312,76.9254647 1261.9947,77.3431487 C1261.06753,77.7081392 1262.89861,83.7320635 1257.40676,90.8636058 C1257.40676,90.8636058 1253.24632,96.6086056 1245.47438,97.7169262 C1242.31363,98.1679828 1237.67815,98.5477275 1233,94.9484082 C1233,94.9484082 1237.74512,95.5705431 1242.49129,91.9708725 C1242.49129,91.9708725 1237.61014,91.5552962 1236.45743,87.4012896 C1236.45743,87.4012896 1238.69449,87.4012896 1239.16883,87.332788 C1239.16883,87.332788 1233.94868,85.5313719 1234.01634,80.4429334 C1234.01634,80.4429334 1235.77906,81.2393083 1236.76244,81.1353264 C1236.76209,81.1349751 1232.35529,77.7766408 1234.96537,72.2385509 C1234.96537,72.2385509 1239.71153,79.0230184 1248.45748,79.1617781 Z" id="twitter-icon"></path>
            </g>
        </g>
    </g>
</svg>